<?xml version="1.0" encoding="UTF-8"?> <svg xmlns="http://www.w3.org/2000/svg" width="81" height="22" viewBox="0 0 81 22" fill="none"><path fill-rule="evenodd" clip-rule="evenodd" d="M28.5263 0.0748654C26.7796 0.152529 25.6979 0.297205 24.8524 0.566318C24.3305 0.732395 24.2497 0.789239 24.2497 0.990662C24.2497 1.33879 24.8803 4.78807 25.0533 5.38614L25.2037 5.90635L25.8311 5.84815C26.1762 5.8162 26.8709 5.76139 27.3749 5.72623L28.2914 5.66251L28.2898 6.18418C28.2888 6.47111 28.205 8.66682 28.1034 11.0636C28.0018 13.4603 27.9179 15.5772 27.917 15.7678L27.9154 16.1144L26.529 16.2302C25.7665 16.2938 25.0419 16.3732 24.9187 16.4066L24.6948 16.4674L24.76 17.5421C24.8429 18.9063 25.0834 21.3966 25.1377 21.4524C25.1848 21.5009 25.1766 21.5004 29.4662 21.7812C33.6076 22.0523 38.0412 22.0741 39.7832 21.8317C43.2145 21.3544 45.2849 20.4608 46.8126 18.7977C48.4035 17.0659 49.1647 14.8876 49.3123 11.6455C49.4403 8.83328 48.9083 6.4471 47.7511 4.64252C46.3656 2.48197 44.2874 1.19431 41.3114 0.652213C38.2722 0.0985907 33.1712 -0.131787 28.5263 0.0748654ZM35.2832 8.16297C35.3734 6.94048 35.4708 5.90093 35.4995 5.85299C35.5285 5.80467 36.1868 5.7825 36.9736 5.80332C38.2947 5.83828 38.4368 5.86035 38.9802 6.11591C40.0536 6.62063 40.7811 7.64702 41.1404 9.1634C41.3461 10.0312 41.3427 12.0897 41.1342 12.9823C40.6869 14.8973 39.5858 15.9871 37.6816 16.3991C36.962 16.5549 35.3322 16.5591 35.1839 16.4056C35.0411 16.2579 35.1105 10.5031 35.2832 8.16297Z" fill="#FADF12"></path><path d="M1.71534 0.338362L0 0.367316V0.753119C0 1.167 0.459899 4.93623 0.51761 4.99569C0.53669 5.01535 1.09415 4.99036 1.75651 4.9402C2.71202 4.86776 2.98845 4.87503 3.09504 4.97506C3.21093 5.08391 3.21384 5.81416 3.11628 10.3097C3.05406 13.1743 2.97877 15.784 2.94897 16.109L2.89484 16.6998L1.75735 16.7629C1.13175 16.7975 0.578704 16.8683 0.528324 16.9202C0.373803 17.0794 0.295978 17.9631 0.288835 19.642L0.281974 21.2482L11.0611 21.3097C18.856 21.3542 21.8747 21.3417 21.965 21.2646C22.3154 20.9649 22.5219 19.3373 22.6162 16.1322L22.6806 13.9379L22.1728 13.8827C19.842 13.6292 16.9524 13.4067 16.5508 13.45L16.2302 13.4845L15.7049 14.9682C15.416 15.7842 15.1161 16.4882 15.0386 16.5328C14.961 16.5773 13.8922 16.6457 12.6633 16.6847L10.4291 16.7557L10.48 12.8066L12.0309 12.7312C12.8838 12.6898 13.8364 12.6329 14.1476 12.6048L14.7135 12.5539L14.6779 10.5498C14.6584 9.44762 14.6299 8.53182 14.6146 8.51478C14.5993 8.49774 13.7121 8.45823 12.6429 8.42695L10.6991 8.3702L10.6107 8.13053C10.5621 7.99863 10.5339 7.23197 10.5482 6.42676L10.574 4.96276H14.6991L14.8656 5.25638C15.0112 5.51338 15.1534 6.00619 15.362 6.97622L15.4201 7.24649L18.0256 7.2339C19.4586 7.22693 20.754 7.19691 20.9042 7.16728L21.1773 7.11324L21.1152 4.05287C21.081 2.36963 21.0198 0.839886 20.9792 0.653472L20.9053 0.314539L12.168 0.311925C7.36252 0.310569 2.65873 0.322383 1.71534 0.338362Z" fill="#FADF12"></path><path fill-rule="evenodd" clip-rule="evenodd" d="M59.0577 0.444399C58.7389 0.479455 58.4488 0.538332 58.4132 0.57513C58.081 0.91784 55.0728 10.6773 54.046 14.7434C53.777 15.8086 53.5441 16.7268 53.5284 16.7839C53.5127 16.8409 52.9246 16.9896 52.2215 17.1143L50.9432 17.341V18.3778C50.9432 19.4303 51.1344 20.872 51.3339 21.3228C51.4253 21.5296 51.5067 21.5705 51.8278 21.5707C52.7801 21.5712 62.8327 21.1673 62.8718 21.1271C62.9253 21.072 62.5542 17.1353 62.4892 17.0683C62.4638 17.042 61.9072 16.9685 61.2525 16.905C60.5976 16.8414 60.0207 16.7631 59.9703 16.7311C59.9146 16.6956 59.9781 16.3052 60.133 15.7323L60.3874 14.7918L61.7042 14.804C62.4285 14.8107 63.6253 14.8433 64.3637 14.8766L65.7062 14.9371L66.22 16.0835C66.5025 16.7141 66.7337 17.2465 66.7337 17.2666C66.7337 17.2867 66.2791 17.3154 65.7233 17.3305L64.7129 17.358L64.7249 18.3264C64.7372 19.3225 64.9576 20.8866 65.1457 21.3117C65.2256 21.4926 65.3492 21.5669 65.6459 21.6128C66.0408 21.6738 72.7365 21.5313 75.0755 21.412L76.3209 21.3486V17.0191H73.9998L73.3339 15.5907C72.9676 14.8051 71.8778 12.4847 70.912 10.4341C69.9462 8.38357 68.9117 6.18292 68.6131 5.54379C66.2217 0.425806 66.4018 0.766676 66.0601 0.712253C64.8255 0.515672 60.0644 0.33352 59.0577 0.444399ZM61.1206 10.9909C61.1462 10.9244 61.4742 10.0731 61.8497 9.09939C62.2251 8.12559 62.5705 7.34198 62.6172 7.35795C62.6639 7.37403 62.9787 7.93114 63.3167 8.59593C63.6547 9.26072 64.0675 10.0712 64.2341 10.3969L64.5369 10.9892L63.779 11.05C62.4343 11.1579 61.0682 11.1276 61.1206 10.9909Z" fill="#FADF12"></path><path d="M81 20.1253C81 20.9803 80.3284 21.6734 79.5 21.6734C78.6716 21.6734 78 20.9803 78 20.1253C78 19.2703 78.6716 18.5772 79.5 18.5772C80.3284 18.5772 81 19.2703 81 20.1253Z" fill="#FADF12"></path></svg> 